# xmcd CD database file
#
# Track frame offsets:
#	150
#	45266
#	73337
#	119609
#	158294
#	172523
#	209890
#	261215
#
# Disc length: 3951 seconds
#
# Revision: 0
# Processed by: cddbd v1.5.1PL0 Copyright (c) Steve Scherf et al.
# Submitted via: CDex 1.51
#
DISCID=690f6d08
DTITLE=Marc Muellbauers  - Quiet
DYEAR=2004
DGENRE=Jazz
TTITLE0=Kaleidoscope
TTITLE1=Quiet
TTITLE2=Summer Sketch
TTITLE3=Man on the Phone
TTITLE4=Interlude
TTITLE5=Letter to Recife
TTITLE6=Field
TTITLE7=Folksong
EXTD=YEAR: 2004
EXTT0=
EXTT1=
EXTT2=
EXTT3=
EXTT4=
EXTT5=
EXTT6=
EXTT7=
PLAYORDER=
